<svg xmlns="http://www.w3.org/2000/svg" width="280" height="280" viewBox="0 0 280 280"><title>logo</title><path d="M167.35,128.4a1.68,1.68,0,1,1,0-3.35,1.68,1.68,0,1,1,0,3.35M112.6,193.46a0.49,0.49,0,1,0,0,1,0.49,0.49,0,1,0,0-1m21.43,1a0.49,0.49,0,1,0-.51-0.49,0.5,0.5,0,0,0,.51.49m-36-9.17a5.09,5.09,0,0,0-3.35-.34,4.89,4.89,0,0,0,2,2.61,5,5,0,0,0,3.33.34,4.73,4.73,0,0,0-2-2.61m-1.92-8.16a4.26,4.26,0,0,0,.83,2.84,4.58,4.58,0,0,0,2.76,1.31,4.16,4.16,0,0,0-.85-2.86,4.57,4.57,0,0,0-2.74-1.29m2.36,4.72a5.1,5.1,0,0,0-3.23-.88,4.82,4.82,0,0,0,1.46,2.91,5.09,5.09,0,0,0,3.23.89,4.71,4.71,0,0,0-1.46-2.91m0.05-8.32c-6,0-10.12,4.07-10.12,9.06,0,4.61,2.85,7.87,8,8.9,2,0.41,2.77.88,2.88,1.65h2.16v-0.72c0-.67-0.44-1.94-2.84-2.48-3.88-.89-6-3.7-6-7.1,0-4,3.31-7.33,8.29-7.33a10.55,10.55,0,0,1,5.24,1.35l0.38-.42a11.81,11.81,0,0,0-7.94-2.92m3.19,4.89a4.24,4.24,0,0,0-.86,2.86,4.58,4.58,0,0,0,2.77-1.31,4.26,4.26,0,0,0,.84-2.84,4.62,4.62,0,0,0-2.75,1.29m0.39,3.43a4.75,4.75,0,0,0-1.48,2.91,5.06,5.06,0,0,0,3.22-.89,4.69,4.69,0,0,0,1.46-2.91,5,5,0,0,0-3.2.88m1.81,5.71a4.74,4.74,0,0,0,2-2.61,5,5,0,0,0-3.33.34,4.69,4.69,0,0,0-2,2.61,5,5,0,0,0,3.31-.34m-2,7.43H98.75l-0.88,8.57a2.51,2.51,0,0,0,4.86,0Zm10.27-11.38a4.73,4.73,0,0,0,.25,1.45h4v0.64H112.6a3.39,3.39,0,0,0,3.18,1.94h1.56c0,0.31,0,1,0,1.32h-1.58l-0.63,0H114v2.3H133.3v-2.3H132.7l-0.67,0h-1.56c0-.31,0-1,0-1.32H132a3.43,3.43,0,0,0,3.19-1.94h-3.86V185h4.12a4.81,4.81,0,0,0,.25-1.45v-0.25h-6a1.05,1.05,0,0,0-1.06,1v1.41h-1.36v-1.41a2.32,2.32,0,0,1,1.32-2.08l0.36-.18-0.33-.23a8.53,8.53,0,0,0-9.71-.14l-0.4.27,0.45,0.16a2.37,2.37,0,0,1,1.61,2.2v1.41h-1.36v-1.41a1.05,1.05,0,0,0-1.07-1h-6v0.25Zm14.59,11.33a15.74,15.74,0,0,1,1.35-2.06h-1.13c0,0.54-.21,2.06-0.21,2.06m-4.76,3.68,0.67-.26a20.06,20.06,0,0,0,2.2-1l0.2-4.53h-3.3ZM136.74,194a6.11,6.11,0,0,0-3.46-1.54c-1.71,0-4,.84-6,4.77a3.28,3.28,0,0,1-1.31,1.28,0.19,0.19,0,0,0,0,0,16.89,16.89,0,0,1-2.75,1.26,29.33,29.33,0,0,0-3.09,1.36,3.82,3.82,0,0,0-2.15,3.27,3.59,3.59,0,0,0,1.83,2.87,15.74,15.74,0,0,1,1.84-1.14c-1-.5-1.66-1-1.66-1.72,0-1,.88-1.56,2.1-2.1v0c0.64-.29,1.32-0.57,2-0.84a27.84,27.84,0,0,0,2.95-1.33,5.47,5.47,0,0,0,2.07-2.08,11.3,11.3,0,0,1,1.83-2.62c0.67-.64,1.54.06,3,0.06a3.67,3.67,0,0,0,2.75-1l0.08-.51m-14.3,10.29a0.86,0.86,0,0,0,.88.85,0.86,0.86,0,1,0-.88-0.85m3,3.85c1.63-.84,3.27-1.93,3.27-3.71a3.45,3.45,0,0,0-1.33-2.68c-0.65.33-1.36,0.64-2.07,0.93a2.11,2.11,0,0,1,1.39,1.75c0,0.78-.93,1.33-2.09,1.92-0.33.16-.66,0.33-1,0.52a20.79,20.79,0,0,0-3,1.67l-0.07,0a3.2,3.2,0,0,0-1.43,2.53,2.69,2.69,0,0,0,1.36,2.52,12.21,12.21,0,0,1,1.48-1.3,1.36,1.36,0,0,1-.82-1.22,1.35,1.35,0,0,1,.64-1h0l0.08-.06a0.86,0.86,0,0,1,.18-0.12,16.67,16.67,0,0,1,2.55-1.37l0.8-.4h0m-0.24,6.17a3.55,3.55,0,0,0,2.28-3.22,2.84,2.84,0,0,0-.7-1.86l-1.41.71-0.46.22a1.27,1.27,0,0,1,.57.94,1.22,1.22,0,0,1-.4.92l-0.09.07-0.07,0v0l-0.05,0-0.18.1c-1.79,1.18-2.7,1.71-3.5,2.94a2.52,2.52,0,0,0-.36,1.25,2.22,2.22,0,0,0,1.79,2.06l0,1.07a0.67,0.67,0,0,0,1.34,0l0-1.07a2.22,2.22,0,0,0,1.79-2.06,2.35,2.35,0,0,0-.12-0.66,4.08,4.08,0,0,0-1.08.66,0.84,0.84,0,0,1-1.14-.06,0.78,0.78,0,0,1,.07-1.11,6.08,6.08,0,0,1,1.63-1m-6.55-21.44a15.33,15.33,0,0,1,1.26,2s-0.11-1.45-.12-2h-1.14m-1,5.22a5.13,5.13,0,0,0,1.6,1.76,22.32,22.32,0,0,1,2.13-1,4.12,4.12,0,0,1-1.93-1.63c-2-3.93-4.3-4.81-6-4.77a6.07,6.07,0,0,0-3.45,1.54l0.09,0.51a3.65,3.65,0,0,0,2.73,1c1.5,0,2.37-.7,3-0.06a11.12,11.12,0,0,1,1.82,2.62M82.42,178.66a0.49,0.49,0,0,1-.18-0.67,0.53,0.53,0,0,1,.7-0.17L86.76,180a10.36,10.36,0,0,1,1.84-3.76L85.92,174a0.46,0.46,0,0,1-.07-0.68,0.52,0.52,0,0,1,.72-0.06l2.68,2.18a10.94,10.94,0,0,1,2.82-2.19l-2.19-2.53a0.47,0.47,0,0,1,.06-0.69,0.52,0.52,0,0,1,.72.06L93,172.8a13.2,13.2,0,0,1,5.47-1.12A14.06,14.06,0,0,1,106.4,174l3.43-3.95a0.5,0.5,0,0,1,.7-0.05,0.47,0.47,0,0,1,.06.69l-3.39,3.91c0.17,0.15.34,0.29,0.51,0.45l0.88,0.79L106,178.8a6.45,6.45,0,0,1-.17.69l0.34,0,7.69-6.24a0.52,0.52,0,0,1,.71.06,0.49,0.49,0,0,1-.07.68l-7.64,6.21-0.11,1.2a5.89,5.89,0,0,1-.6,2l0.85,0.22,10.5-5.86a0.53,0.53,0,0,1,.7.17,0.5,0.5,0,0,1-.19.67l-5.59,3.13h3.82a10.26,10.26,0,0,1,14.77,0h6.29v1.8a5.76,5.76,0,0,1-2.29,4.68v2.55a9.16,9.16,0,0,1,3,1.75l0.81,0.73-0.26,1.33-0.11.46c-0.44,1.25-2.52,2.32-4.59,2.32a8.15,8.15,0,0,1-1.92-.25h0a11.91,11.91,0,0,0-1.14,1.77,6.71,6.71,0,0,1-1.57,1.93,5,5,0,0,1-.67,7.54,4.62,4.62,0,0,1,.86,2.69,4.91,4.91,0,0,1-1.94,4,3.68,3.68,0,0,1,.3,1.37,4,4,0,0,1-1.85,3.28,2.61,2.61,0,0,1-5.2,0,3.93,3.93,0,0,1-1.86-3.28,3.61,3.61,0,0,1,.29-1.37,4.94,4.94,0,0,1-2-4,4.54,4.54,0,0,1,.88-2.69,5,5,0,0,1-.66-7.54,6.25,6.25,0,0,1-1.58-1.93,13.32,13.32,0,0,0-1.14-1.77h0a8.41,8.41,0,0,1-1.95.25c-2,0-4.15-1.07-4.59-2.32,0-.1-0.1-0.46-0.1-0.46l-0.26-1.36,0.82-.7a8.62,8.62,0,0,1,3.67-1.91v-2.8a5.84,5.84,0,0,1-1.81-4.27v-0.72l-2.93,1.64-0.31,1.14a5.87,5.87,0,0,1-2.52,3.3,5.53,5.53,0,0,1-2.74.64,3.85,3.85,0,0,1,1.3,2.8v0.72h0.27l1.08,10.32v0.09c0,2.06-1.95,3.74-4.33,3.74S96,205.6,96,203.54v-0.09l1-9.91c-0.24-.07-0.56-0.15-1.06-0.26-6.33-1.26-9.5-5.37-9.5-10.7a8.71,8.71,0,0,1,.14-1.61l-4.15-2.31m102.19,17.42a4.5,4.5,0,0,0,4.57-4.42h-9.12a4.49,4.49,0,0,0,4.55,4.42m-9.73,13.22s4.8-10.47,5.51-12.23a20,20,0,0,1-3-.53,9.62,9.62,0,0,1-3.41-1.61,6.74,6.74,0,0,0-2.39-1.2,3.7,3.7,0,0,0-.74-0.09l-1,13.66c1.39,0.64,2.59,1.67,3.38,1.86a6,6,0,0,0,1.69.13M170,180.67h15.51a1.78,1.78,0,1,0,0-3.57,1.8,1.8,0,0,0-1.84,1.78s0,0.07,0,.13c-3.33.22-10.13,0.4-14.8-2.91a2.46,2.46,0,0,0,.7-1.72,2.63,2.63,0,0,0-5.25,0,2.48,2.48,0,0,0,.7,1.72c-4.65,3.31-11.42,3.14-14.76,2.91,0,0,0-.09,0-0.13a1.85,1.85,0,1,0-1.85,1.78h15.46l2.41,32.56a0.66,0.66,0,0,0,1.32,0Zm-7.12,25.69a3.05,3.05,0,0,1,1.07-.58l-1-13a9.45,9.45,0,0,1-2.56-.19,9.9,9.9,0,0,1-2.23-.79c-0.73,1.07-6.6,10.09-7.34,11.2a8.13,8.13,0,0,0,2,.82,12.53,12.53,0,0,0,4.25.12,9,9,0,0,1,3.48.06,3.79,3.79,0,0,1,2.31,2.35m-13.61-10.28a4.5,4.5,0,0,0,4.58-4.42h-9.15a4.5,4.5,0,0,0,4.57,4.42m6.4-6.18v1.76a7.4,7.4,0,0,1-.11,1.06l1.64-2.43,0.49-.7,0.71,0.5a7.71,7.71,0,0,0,4.46,1.11l-0.65-8.77H150.54L154,189.9h1.63Zm-9.59,0h6.39l-3.2-6.87Zm33.39,5.34a6,6,0,0,1-1.19-3.58V189.9h1.61l3.48-7.48H171.68L171,192.05a5,5,0,0,1,1,.13,8.4,8.4,0,0,1,3,1.42,8,8,0,0,0,2.83,1.38,12,12,0,0,0,1.67.26M184.62,183l-3.19,6.87h6.4Zm6.4,6.87v1.76a6.3,6.3,0,0,1-6.4,6.18,6.57,6.57,0,0,1-2.29-.43l0,0.81-5.88,14-6.83-2.13-0.22,3.15h0v0a2.48,2.48,0,0,1-5,0v0.12l-0.34-4.52a3.2,3.2,0,0,1-1.88.12c-0.78-.2-1.92-0.93-1.76-1.53l-12-2.33,0.46-2.68,0,0,0-.06v0h0l3.72-5.45a6.52,6.52,0,0,1-3.48,1,6.28,6.28,0,0,1-6.36-6.18V189.9h1.61l3.48-7.51a3.53,3.53,0,0,1,.44-7,3.67,3.67,0,0,1,3.26,2c4.6,0.16,8.29-.44,11-1.86a4.11,4.11,0,0,1-.17-1.07,4.45,4.45,0,0,1,8.89,0,4.33,4.33,0,0,1-.17,1.07c2.69,1.42,6.41,2,11,1.85a3.66,3.66,0,0,1,3.26-2,3.53,3.53,0,0,1,.41,7l3.49,7.51H191ZM99.39,136.09a7.24,7.24,0,0,0-7.07,7.45c0,5.57,4.49,8.1,8.34,9.5a2.53,2.53,0,0,1,1.34-.88l0.28-.08c-0.59-.48-2.08-1.12-4.19-2.66-1.84-1.33-3.66-2.85-3.66-5.88a5.19,5.19,0,0,1,4.94-5.35,13.17,13.17,0,0,1,3.69.5c1,0.32,2.25,1.26,3.71,1.26,2.5,0,3.36-1,3.36-1l0.17-.93s-1.82-1.75-3.63-1.75a24.21,24.21,0,0,0-3.27.28,15.93,15.93,0,0,0-4-.43m-2.46,5.53v1.94c0,2.64,2.11,4.11,4,5.4,1.22,0.84,2.76,1.61,3.41,2.57l3.92-1s1.57-1,2.35-1.54c1.84-1.29,4-2.77,4-5.4v-1.94H96.92Zm12.17,16.2a1,1,0,0,0,.69-1.2,1,1,0,0,0-1.23-.69l-6,1.62a1,1,0,0,0-.68,1.2,1,1,0,0,0,1.23.68l6-1.6m-6.68-4.26a1,1,0,0,0-.7,1.21,1,1,0,0,0,1.24.67l6-1.61a1,1,0,0,0,.71-1.2,1,1,0,0,0-1.25-.68l-6,1.61m8.5,10.4c0-1.27-4-2.88-4-4l-2.75.74c-1.05,1-3.58,2.27-3.58,3.29v0.25h10.36V164m0-30.48h9.68v30.74h5.5V133.47h9.67v-5.33H126.1V117.35h-5.5v10.79h-9.68v5.33ZM90.3,143.54a9.24,9.24,0,0,1,9.08-9.39,29.54,29.54,0,0,1,4.34.42,18.69,18.69,0,0,1,2.94-.28,7.59,7.59,0,0,1,2.33.55v-8.54h9.68v-10.8H128v10.8h9.68v9H128v30.3h-9.32v-30.3H110a22.24,22.24,0,0,1,2.37,1.92,7,7,0,0,1,1.46-.27c0.9,0,1.52.77,2.06,0.77s0.76,0,.76.22a0.74,0.74,0,0,1-.84.5c-0.66,0-1.29-.52-1.91-0.52a4.57,4.57,0,0,0-1.66.5L112,139.67h4.52v3.89c0,3.64-2.79,5.57-4.81,7a14.14,14.14,0,0,1-1.24.73,2.66,2.66,0,0,1,.57,1,2.43,2.43,0,0,1-.24,1.84,2.38,2.38,0,0,1-.67.74,2.53,2.53,0,0,1,1.17,2c0,1.94-2.46,2.52-2.46,2.52v0.13c0.17,0.16.43,0.39,0.62,0.55,1.07,0.88,3.43,2,3.43,4.16v1.39H98.55v-1.39c0-1.86,1.71-3,2.87-3.78a2.32,2.32,0,0,1-1-1.31,2.43,2.43,0,0,1,.24-1.85,2.36,2.36,0,0,1,.66-0.74,2.33,2.33,0,0,1-1.12-1.59c-4.54-1.59-9.92-4.66-9.92-11.42m90.79,2.33a3.32,3.32,0,0,0,3.5,3.36,4.76,4.76,0,0,0,4.84-4.65c0-3.53-2.4-5.72-6.29-5.72H177.6l1.93,4.76a4.41,4.41,0,0,1,4.25-2.69,3.47,3.47,0,0,1,3.7,3.38,3,3,0,0,1-3.17,3.06,1,1,0,1,1,0-1.94,1,1,0,0,0,1.16-1.12,1.52,1.52,0,0,0-1.69-1.43c-1.68,0-2.68,1.11-2.68,3m4.77,18.43s-9.27-22.92-13.41-33.13a7,7,0,0,1-5.11,2.24c-0.14,0-.27,0-0.41,0l18.44,31.19,0.48-.26m-5.71-5-3.39-5.76v8.16h3.39v-2.4Zm-5.55-9.41-1.94-3.29H162.06l-2,3.33V161.7h3.4V149.5a1.06,1.06,0,0,1,1.08-1,1.07,1.07,0,0,1,1.09,1v12.2H169V149.5a1.08,1.08,0,0,1,2.15,0v12.2h3.41V149.88Zm-16.67,3.7-3.41,5.75v2.36h3.41v-8.11Zm5.27-8.94h8.31l-3.42-5.78h-1.47Zm3.09-8.84-1.79-3a7.1,7.1,0,0,1-2.28-1.65L148.79,164.3l0.5,0.26Zm-16.2,13.43a3.31,3.31,0,0,0,3.5-3.36c0-1.88-1-3-2.68-3a1.52,1.52,0,0,0-1.68,1.43,1,1,0,0,0,1.15,1.12,1,1,0,1,1,0,1.94,3,3,0,0,1-3.16-3.06,3.46,3.46,0,0,1,3.69-3.38,4.39,4.39,0,0,1,4.25,2.71l1.95-4.78h-5.56c-3.88,0-6.29,2.19-6.29,5.72a4.75,4.75,0,0,0,4.83,4.65M167.35,122a4.73,4.73,0,1,0,4.89,4.74,4.79,4.79,0,0,0-4.89-4.74m24.1,22.58a6.73,6.73,0,0,1-6.86,6.59,6.08,6.08,0,0,1-2.16-.38l2.81,6.92,2.43,6c0.61,1.53-.43,2-0.43,2l-1.41.71c-0.86.44-1.58-.15-2-0.92l-1.63-2.76v0.72H152.52v-0.69l-1.61,2.73c-0.45.76-1.16,1.36-2,.92l-1.4-.71s-1.05-.43-0.44-2l2.42-6,2.82-6.92a6.28,6.28,0,0,1-2.18.39,6.74,6.74,0,0,1-6.86-6.59c0-4.58,3.34-7.68,8.31-7.68h6.35L161,129.3a6.34,6.34,0,0,1-.53-2.56,6.91,6.91,0,0,1,13.8,0,6.48,6.48,0,0,1-.54,2.54l3.1,7.63h6.35c5,0,8.3,3.09,8.3,7.68M107,138.26a0.49,0.49,0,1,0-.5-0.49,0.5,0.5,0,0,0,.5.49m59.57-60,0,0.11a6.39,6.39,0,0,1,.16,1.4v0.3s0,0.71,0,.83l0.07,0.14,0.22,0.49,0.11-.51a8.2,8.2,0,0,1,3.42-4.77l0.08-.06,0-.1c0-.24-0.09-0.54-0.14-0.84l0-.17-0.46.09-0.25.08a21.86,21.86,0,0,1-3.13,2.95Zm-1.14,2.48a6.77,6.77,0,0,0-.36-2.93A26.79,26.79,0,0,0,169.18,74l2-.39c0.47-.1.4,0,0.47,0.37l0.43,2.33a4.31,4.31,0,0,1-.22.59s-3.51,2.17-3.51,5.69a8.62,8.62,0,0,0,.09.92h0a7.32,7.32,0,0,1-2-.87,3.24,3.24,0,0,1-1-1.91M173,72.32a20.12,20.12,0,0,1,.23,3.52,3.52,3.52,0,0,0,1.22-2.08,15.41,15.41,0,0,0-.46-3.23c-0.12-.16-1.35-1.67-2-1.67a1.35,1.35,0,0,0-.9,1,17.39,17.39,0,0,1-1.11,1.8v0.19c0.92,0,2.82-.06,3,0.42M94.46,88.08L96.09,90a23.2,23.2,0,0,1,2.73-1.84,1.16,1.16,0,0,1-.06-0.37,2.58,2.58,0,0,1,1.57-2.38,2.58,2.58,0,0,1,1.12-.24,2.76,2.76,0,0,1,2,.91,24.47,24.47,0,0,1,2.93-.77l-0.49-2.43a27.08,27.08,0,0,0-6.07,1.88,26.24,26.24,0,0,0-5.4,3.3M90.6,83.3l1.58,2a29.32,29.32,0,0,1,4-2.62c0-.1,0-0.2,0-0.32a2.67,2.67,0,0,1,2.67-2.62,2.72,2.72,0,0,1,2,.86,29.43,29.43,0,0,1,4.4-1.17c-0.09-.3-0.56-2.43-0.56-2.43a33.8,33.8,0,0,0-7.44,2.3,33,33,0,0,0-6.61,4m2.95-6.17a1,1,0,0,1-.05-0.26,2.63,2.63,0,0,1,1.56-2.37,2.86,2.86,0,0,1,1.14-.25,2.71,2.71,0,0,1,1.93.81,35.08,35.08,0,0,1,5.64-1.59c-0.27-1-.43-1.6-0.55-1.93a4.27,4.27,0,0,0-.5,0,11.63,11.63,0,0,0-2.55.38l-0.4.1a10,10,0,0,1-2.64.43,4.1,4.1,0,0,1-3.22-1.31,1.44,1.44,0,0,0-.51-0.46,0.85,0.85,0,0,0-.31.09c-0.27.14-.27,0.14-0.27,0.35s0,0.29,0,.49a2.76,2.76,0,0,1,.06.6c0,2.25-2.09,3.65-3.12,4.32l-0.33.23a8,8,0,0,0-2.23,2c0.19,0.29.55,0.78,1.18,1.64a34.65,34.65,0,0,1,5.13-3.29M153,72.27c-0.61.23-1.18,0.45-1.74,0.64a22.79,22.79,0,0,1,.31,3.55,13.23,13.23,0,0,1-.08,1.36c0.49,0.13.56,0.16,1.08,0.28A8.16,8.16,0,0,1,155,74.73c-0.61-.7-1.27-1.53-1.94-2.46m-2.82,6.36a9.2,9.2,0,0,0,.25-2.17,19.46,19.46,0,0,0-.44-4.3c0.62-.21,2-0.69,3.4-1.26a37.24,37.24,0,0,0,3.16,3.94,8.35,8.35,0,0,0-3.22,4.61l-3.15-.83m-21.47-5.72c-0.57-.2-1.13-0.41-1.73-0.64-0.69.93-1.36,1.76-1.94,2.46a8.29,8.29,0,0,1,2.35,3.37l1.1-.28a8.65,8.65,0,0,1-.1-1.36,21.35,21.35,0,0,1,.32-3.55m-5.29,1.94a37.43,37.43,0,0,0,3.15-3.94c1.37,0.57,2.8,1,3.41,1.26a19.33,19.33,0,0,0-.44,4.29,9,9,0,0,0,.25,2.17l-3.14.83a8.34,8.34,0,0,0-3.22-4.61m4.6,7.63a9.85,9.85,0,0,1-.67,3.1,29.82,29.82,0,0,0,4.23-1.31A14.71,14.71,0,0,1,129.93,82l-1.9.51m-2.89,4.71a8.84,8.84,0,0,0,1.79-5.58c2-.51,3-0.79,3.59-1a13.87,13.87,0,0,0,3,4,32.64,32.64,0,0,1-8.35,2.54M140,83.78a9.55,9.55,0,0,1-.85.93c0.32,0.2.61,0.36,0.85,0.49,0.23-.13.53-0.29,0.85-0.49a10.69,10.69,0,0,1-.85-0.93m-2.72,1.08A10.71,10.71,0,0,0,140,81.79a10.92,10.92,0,0,0,2.72,3.07,19.81,19.81,0,0,1-2.72,1.6,24.78,24.78,0,0,1-2.72-1.6M125.65,62.49c-0.43,0-1.06,1-1.06,2.1a2.38,2.38,0,0,0,.81,1.81,6.84,6.84,0,0,0,.88-2.84,1.28,1.28,0,0,0-.63-1.07m0.12,5.62a4.4,4.4,0,0,1-2.33-3.52c0-1.66,1.08-3.22,2.21-3.22s1.77,1.41,1.77,2.19a10.37,10.37,0,0,1-1.65,4.55M150.06,82a14.9,14.9,0,0,1-1.65,2.31,30.42,30.42,0,0,0,4.23,1.31,9.86,9.86,0,0,1-.68-3.1L150.06,82m4.79,5.23a32.54,32.54,0,0,1-8.36-2.54,13.64,13.64,0,0,0,3-4c0.55,0.18,1.6.45,3.59,1a8.82,8.82,0,0,0,1.79,5.58M133.06,74.38a19.39,19.39,0,0,0-.14,2.08c0,0.05,0,.1,0,0.16l0.55-.15a2.42,2.42,0,0,1,2.19-1.16s-1.32-.52-2.63-0.93m4.68,3.7s-0.32,1.92-3.21,2.66a12,12,0,0,0,1.05,1.21c2.36-2,2.16-3.87,2.16-3.87m-5.79,0a7.86,7.86,0,0,1-.18-1.6,18.42,18.42,0,0,1,.34-3.61c3.5,1.18,6.63,2.49,6.63,5.32,0,2-1.1,3.79-3.24,5.32a12,12,0,0,1-2.78-3.41l2.18-.62c1.34-.46,2.09-1.52,1.81-2.55a1.14,1.14,0,0,0-1.07-.8,0.92,0.92,0,0,0-.28,0,1.07,1.07,0,0,0-.84,1s0,0.09,0,.12l-0.36.14Zm22.4-15.57a1.29,1.29,0,0,0-.62,1.07,6.84,6.84,0,0,0,.86,2.84,2.38,2.38,0,0,0,.83-1.81c0-1.08-.64-2.1-1.07-2.1m2.23,2.1a4.43,4.43,0,0,1-2.34,3.52,10.49,10.49,0,0,1-1.66-4.55c0-.77.67-2.19,1.78-2.19s2.23,1.56,2.23,3.22M142.24,78.08s-0.2,1.86,2.16,3.86a9.83,9.83,0,0,0,1.06-1.21c-2.91-.73-3.22-2.65-3.22-2.65m4.68-3.7c-1.3.42-2.65,0.93-2.65,0.93a2.45,2.45,0,0,1,2.21,1.16L147,76.63c0-.06,0-0.11,0-0.16a19.42,19.42,0,0,0-.12-2.08m-2.43,9.11c-2.14-1.53-3.23-3.31-3.23-5.32,0-2.83,3.12-4.14,6.62-5.32a20.33,20.33,0,0,1,.34,3.61,6.5,6.5,0,0,1-.2,1.6l-2.23-.62a2.21,2.21,0,0,1-.34-0.13s0-.07,0-0.12a1.08,1.08,0,0,0-.82-1,1.29,1.29,0,0,0-.3,0,1.11,1.11,0,0,0-1.05.8c-0.29,1,.46,2.08,1.76,2.55l2.21,0.62a12,12,0,0,1-2.78,3.41m38.27,2.66,0.44-3.41,3.52-.59-3.23-1.5L184,77.24l-2.48,2.52-3.21-1.44,0,0,1.66,3-2.48,2.5,3.57-.66Zm-5.51-9.24c-1.62,2.26-3.47,2.83-4.42,4.43s0.21,3.15,1,3.8l1.59,1.12a12.29,12.29,0,0,1,2.82,2.26h0.05a14,14,0,0,1,3.56.67l1.78,0.44a4.8,4.8,0,0,0,.89.09A3.25,3.25,0,0,0,187.49,88c0.64-1.14-.36-4,0.9-6.52a5.73,5.73,0,0,1,2.8-2.77l0-.1a10,10,0,0,1-1.86-.62c-0.95-.42-3.39-2-3.39-4.36a3.32,3.32,0,0,1,0-.52,0.77,0.77,0,0,0,0-.48,2,2,0,0,0-.32.31,3.88,3.88,0,0,1-3,1.24,9.42,9.42,0,0,1-2.58-.44,7.48,7.48,0,0,1-2.11-1.12l-0.07,0s0.57,2.63-.6,4.27m-5.64,3.89a6.58,6.58,0,0,1,2.08-2.21,10.58,10.58,0,0,0,2.18-2c0.08-.12.16-0.23,0.23-0.36l0.25-.44a3.57,3.57,0,0,0,.32-1.57,8.08,8.08,0,0,0-.22-1.7l-0.11-.5,0.46-.27c0.27-.14.69-0.38,0.75-0.43l0.48-.29,0.43,0.37a6.65,6.65,0,0,0,2,1.13,8.6,8.6,0,0,0,2.14.36,2.5,2.5,0,0,0,2-.77,1.69,1.69,0,0,1,1.23-.73,1.64,1.64,0,0,1,.66.17,1.22,1.22,0,0,1,.85,1.2,2.45,2.45,0,0,1-.06.56,2.2,2.2,0,0,0,0,.33c0,1.67,2.08,2.93,2.62,3.18a8,8,0,0,0,1.94.61l0.54,0.09,0.27,1.8-0.44.36a5.47,5.47,0,0,0-2.56,2.22l-0.18.44h0a3,3,0,0,0-.11.45,9.44,9.44,0,0,0-.21,2.17l0,1.28a5.22,5.22,0,0,1-.43,2.34,4.48,4.48,0,0,1-1.13,1.39,4.55,4.55,0,0,1-3,1.08,5.87,5.87,0,0,1-1.16-.12l-1.84-.47a12.86,12.86,0,0,0-3.22-.62l-0.7,0-0.24-.32a10.72,10.72,0,0,0-2.67-2.2l-1.63-1.13a4.38,4.38,0,0,1-1.47-5.4M118,84.43c1,0,.87-1.06,1.26-1.43s1.46-.22,1.46-1.21-1.1-.86-1.46-1.21-0.19-1.42-1.26-1.42a1,1,0,0,0-1,1.2v2.88a1,1,0,0,0,1,1.2M85.33,94.63a1.06,1.06,0,0,0-1.57,0c-0.62.74,0.28,1.32,0.34,1.84s-0.75,1.22,0,1.86S85.51,98,86,98s1.27,0.76,1.94,0a1,1,0,0,0-.33-1.49Zm55.16,152.44c44.84-.25,81.11-35.79,80.84-79.2a76.65,76.65,0,0,0-15.47-45.67,4.7,4.7,0,0,1-3.19-4,82.94,82.94,0,0,0-125.36,0,4.83,4.83,0,0,1-1.54,3,4.89,4.89,0,0,1-1.62,1,76.59,76.59,0,0,0-15.48,46.6c0.26,43.41,37,78.54,81.82,78.27M79,113.43l-3.21,1.14c-0.49.19-1,.43-0.67,0.43a1.88,1.88,0,0,1,1.35.63c0.09,0.1.16,0.24,0.25,0.35,1.13-1.29,1.08-1.31,2.28-2.54M80.07,97v0ZM68.81,117a3.83,3.83,0,0,0,3.42,3.92,3.37,3.37,0,0,0,3.54-3.54,1.12,1.12,0,0,0-1.9-.76,1.07,1.07,0,0,0-.33.76,1.21,1.21,0,0,1-1.22,1.4,1.66,1.66,0,0,1-1.3-1.58c-0.06-1.09.61-2,2.13-2.9a8.42,8.42,0,0,1,1.73-.82l3.25-1.38h0c0.25-.11,1-0.5,4.06-2a42.92,42.92,0,0,0,6.9-5.17,2.19,2.19,0,0,0,.46-0.4,71.44,71.44,0,0,0,7.2-7.9c0.78-.93-1-2.15-1.61-1.43s-2.78,3.37-4.45,5.11l-0.29.23A6.32,6.32,0,0,1,85.6,103a7.17,7.17,0,0,1-4.25-1.6,6.3,6.3,0,0,1-2.45-4.34,6,6,0,0,1,1.27-4.37,9.25,9.25,0,0,1,6.37-3.18,1.07,1.07,0,1,0,0-2.15,11.47,11.47,0,0,0-8.09,3.94,8.12,8.12,0,0,0-1.78,5.94A8.31,8.31,0,0,0,79.93,103a9.36,9.36,0,0,0,5,2.08,14.74,14.74,0,0,1-7.21,2.22c-1,0-3.87,0-4.77-.89a1,1,0,0,1-.3-0.77,1.09,1.09,0,0,0-1.1-1.07,1.1,1.1,0,0,0-1.12,1.07c0,2.6,2.32,3.8,7.3,3.8l0.78,0-1.32.67L74,111.46a12.16,12.16,0,0,0-2.08,1c-2.1,1.26-3.16,2.79-3.16,4.53m11.38-30V85H79.33v-1.8h6c0-1.19-.2-1.83-1.72-2.81H72.55v2.81h0.87l0,1.8H72.55v1.93H76V85H75.09v-1.8h2.58V85H76.8v1.94h3.38Zm7.39-.43c-0.62-.78-1.26-1.61-1.45-1.84H81.7V87.5a12.75,12.75,0,0,1,4.87-1.26,2.37,2.37,0,0,1,1,.27M89.48,95a2.59,2.59,0,0,0-.26-0.18l2.88-3.39a3.21,3.21,0,0,0-.6-1.64A2.87,2.87,0,0,0,90,89l-3.25,3.81a1.84,1.84,0,0,0-.22-0.22,3.36,3.36,0,0,0-2.15-.75H84.06A3.42,3.42,0,0,0,81.8,93,3.11,3.11,0,0,0,81,95.35a4.2,4.2,0,0,0,.47,1.32,4.52,4.52,0,0,0-.22,1.15,3.26,3.26,0,0,0,3.31,3.12,3.79,3.79,0,0,0,1.61-.45,7.55,7.55,0,0,0,1.4.23,3.24,3.24,0,0,0,3-3.48A2.92,2.92,0,0,0,89.48,95m1.8,0A4.84,4.84,0,0,1,92,97.1h0c0.81-.94,1.54-1.83,2.19-2.63L93,93.06c-0.86,1-1.44,1.65-1.69,1.93M87.74,74.46c-2.9,2.05-4.18,3.89-3.33,5.25,3.11,5,11.69,14.65,11.72,14.67a27.24,27.24,0,0,1,6.27-4.32,23.09,23.09,0,0,1,7.44-1.87s-2.12-12.59-4.08-18.12c-0.34-.92-1.41-1.37-2.93-1.37-2.45,0-4.43.91-5.72,0.91a1.31,1.31,0,0,1-1-.35,3.37,3.37,0,0,0-4.23-1.07A3.16,3.16,0,0,0,90,72c0.13,0.83-1,1.64-1.85,2.16l-0.39.27m19-4.44a2.76,2.76,0,0,0,1.21,2.76,0.74,0.74,0,0,1,.09.12l3.76-4.35,1.43,1.16-0.56.64,1.55,1.25,2.19-2.52-1.54-1.24-0.55.64-1.42-1.16,1.64-1.91,1.42,1.16-0.56.64,1.53,1.25,2.19-2.53-1.54-1.25-0.56.65-1.43-1.16,0.56-.65-2.23-1.81Zm8.65,2.48a13.1,13.1,0,0,1,3.24-.42,8.88,8.88,0,0,1,2.48.42c0.49-.55,1.18-1.38,1.92-2.35a7.31,7.31,0,0,1-2.76-3.34Zm-0.72,14.38h0A4.61,4.61,0,0,1,113.47,85h-2.61c0.15,0.86.18,1.24,0.28,1.8,1,0,2.19.07,3.5,0.07M109,76.58c0.23-.78,2-2.46,4.58-3.51l-2.23-1.81c-0.49.57-1.51,1.75-2.84,3.28l0.5,2m0.21,3.76a2.29,2.29,0,0,0,.76,2.75,0.61,0.61,0,0,1,.17.21l0.05,0.08h4.39c0,0.11,0,.22,0,0.32A3.32,3.32,0,0,0,121,84.78a3.14,3.14,0,0,0,0-6,3.32,3.32,0,0,0-6.42,1.09c0,0.09,0,.2,0,0.32H109.3l0,0.12m-3.09,12.88a2.17,2.17,0,0,1-1.2,1.92,85,85,0,0,1,10.31-3.86c-1.89,0-3.6-.05-5-0.11a31.2,31.2,0,0,0-3.69,0,1.73,1.73,0,0,0-.5,1.42c0,0.15,0,.55,0,0.66m-1.43,2a2.34,2.34,0,0,1-2.53-.57c-0.2-.22-1.11-1-1.7-0.78a27.44,27.44,0,0,0-2.34,2.74C97.32,97.7,96.28,99,95,100.46a84.8,84.8,0,0,1,9.74-5.21m-0.09-2.13a4.22,4.22,0,0,1,.46-2.52,13.13,13.13,0,0,0-4,1.84,4.23,4.23,0,0,1,2.24,1.28,0.79,0.79,0,0,0,.89.18,0.72,0.72,0,0,0,.43-0.77m21-33.89c-2.4,0-4.44,2.45-4.44,5.36a6.32,6.32,0,0,0,3.38,5.32,41,41,0,0,1-3.13,3.87,8.18,8.18,0,0,0-2.86-.57,11.22,11.22,0,0,0-8.31,3.46,1.07,1.07,0,0,0-.26.77,1.13,1.13,0,0,0,.39.72,1.15,1.15,0,0,0,.72.26A1.07,1.07,0,0,0,112,78a9.2,9.2,0,0,1,6.63-2.67,6.54,6.54,0,0,1,4.27,1.86,6.26,6.26,0,0,1,1.86,4.61c0,3-1.82,6.18-6.91,6.18H117.3c-1.81,0-5.4,0-6.13,0s-0.61,2.06-.06,2.07c1.56,0.05,3.63.09,5.38,0.09,10.65,0,17.54-3.34,18.81-4,0.92,0.63,3.69,2.51,4.68,2.51s3.74-1.86,4.68-2.5c1,0.6,5.53,3,14.75,3.74l1,0.08-0.46-.41-0.41-.82s-0.57-.46-0.73-0.62l-0.13-.83-0.16-.08a6.15,6.15,0,0,1-3.21-5.41,6.23,6.23,0,0,1,.69-3l0.07-.12L156,78.59a1.45,1.45,0,0,1-.08-0.32,1.67,1.67,0,0,1,1.48-1.78h0.23a4.47,4.47,0,0,1,1.89-2.3l1.25-1s-2.08.57-2.2,0.61a35.76,35.76,0,0,1-3.17-3.88c2.31-1.4,3.39-3.08,3.39-5.3,0-2.91-2-5.36-4.44-5.36s-4,2.29-4,4.33a12.4,12.4,0,0,0,1.88,5.51c-0.59.24-1.78,0.7-2.82,1a18.47,18.47,0,0,0-2.3-4.48l-0.24-.33-0.3.29a14.58,14.58,0,0,1-1.08,1l-0.23.2L145.43,67a19.28,19.28,0,0,1,1.9,3.77c-2.85,1-5.77,2-7.33,4.24-1.5-2.1-4.51-3.3-7.34-4.25A17.93,17.93,0,0,1,134.58,67l0.17-.26-0.22-.18c-0.38-.31-0.74-0.66-1.09-1l-0.3-.3-0.25.34a18.29,18.29,0,0,0-2.29,4.53q-1.47-.48-2.84-1a12.36,12.36,0,0,0,1.87-5.51c0-2-1.7-4.33-4-4.33m6.07,6c-0.33-.38-0.66-0.76-1-1.17a12.42,12.42,0,0,1-1.38,4.4l0.52,0.18a19,19,0,0,1,1.83-3.41m13.19,3.07A8.92,8.92,0,0,1,140,70.06a9.09,9.09,0,0,1-4.94-1.76,14.21,14.21,0,0,0-.95,1.8A16.07,16.07,0,0,1,140,73.33a16.13,16.13,0,0,1,5.84-3.23,14.24,14.24,0,0,0-.93-1.78m5.71,0.15a12.32,12.32,0,0,1-1.38-4.32c-0.31.39-.62,0.78-1,1.15a18.33,18.33,0,0,1,1.8,3.37l0.53-.2M140,68c3.27,0,7.61-4.17,9.89-8.89H147c-1.84,3.39-4.77,6.33-7,6.33s-5.17-2.94-7-6.33h-2.9C132.42,63.83,136.77,68,140,68M125.66,57.65H154V55.52H125.66v2.13Zm10.07-11.14c-4.23,0-7.08,3-7.08,7.46v0.09h2.64c0.1-2.46,1.39-5,4.86-5A4.58,4.58,0,0,1,140,51.28a4.8,4.8,0,0,1,3.88-2.21c3.22,0,4.74,2.54,4.84,5h2.63s0-.06,0-0.09c0-4.4-2.91-7.46-7.08-7.46a7.49,7.49,0,0,0-2.72.5V39.2h4V36.73h-4V32.8h-2.75v3.94h-4V39.2h4v8a7.31,7.31,0,0,0-3.14-.66m26.33,21.17a4.35,4.35,0,0,1-2.18-1.16A7.51,7.51,0,0,1,157,70.15c0.73,1,1.43,1.8,1.93,2.35a10,10,0,0,1,2.34-.41,21.76,21.76,0,0,0,2.44-2.2,0.15,0.15,0,0,1,0-.07,6.77,6.77,0,0,1-1.65-2.15M158,85.54A8.67,8.67,0,0,0,157.2,84l0.26-1.22a8.76,8.76,0,0,0,1.08-1.59L158,80.65a2.56,2.56,0,0,1-1.33-.42,6.07,6.07,0,0,0-.23,1.55v0A5.22,5.22,0,0,0,158,85.54m11.71,5.63c-1.38.05-3.08,0.11-4.94,0.11a83.81,83.81,0,0,1,10.21,3.82,2.3,2.3,0,0,1-1.11-1.87,8,8,0,0,0-.07-1.5l-0.84-.62c-0.79,0-2.2,0-3.25.06m-6.91-4.31c1.94,0.06,3.79,0,5.34,0a5.11,5.11,0,0,1-.56-0.9l-0.06-.07-1.37-.21-1.61-1.42a2.76,2.76,0,0,0-.44-0.24l-0.44-.08-0.57-.67L163,82.61l-0.91,1.08a1.54,1.54,0,0,1,0,.65c0.12,0.62.2,1.27,0.27,2l0.46,0.54m0.52,3.3,6.57-.14c1.22,0,.82-2-0.45-2.06s-5.88.05-5.88,0.05v0.42l0,0.05a1.43,1.43,0,0,1,.1.56,1.48,1.48,0,0,1-.15.64Zm23.17,5.1c0.87,1.07,1.86,2.27,3,3.48C189.72,98.39,190,98,190,98l-1.27-.45a2.42,2.42,0,0,1-.62-1.85l-0.25-.41a4.49,4.49,0,0,1-1.4,0M185,100.45c-1.22-1.42-2.28-2.73-3.15-3.8-0.63-.8-1.49-1.88-2-2.44l-1-.25a6,6,0,0,0-1,.72,2.9,2.9,0,0,1-2.43.59,81,81,0,0,1,9.63,5.18m-2.34-4.61c1,1.27,2.34,2.91,3.8,4.54l0.28,0.16,0.25-.15a3.46,3.46,0,0,1,1.3-.4H189l-0.52-.57c-1.54-1.69-2.95-3.42-4.12-4.9-0.39-.48-2.75.08-1.76,1.31M162.35,65.1l-1.54.19c0.22,0.72,1.84,1.08,2.4,1.14a3,3,0,0,0,.12.42,5.23,5.23,0,0,0,1.75,2.24l0.25,1.12A8.21,8.21,0,0,1,163,72.63a13.4,13.4,0,0,0-1.21,1c-0.69.61-1.14,1.14-1.24,1.23a5.87,5.87,0,0,0-1.69,1.65,3.32,3.32,0,0,0-.44,1.84c-0.26.09-.7,0.2-0.8-0.06a0.87,0.87,0,0,1,0-.27c0.07-.54-0.37-0.44-0.51,0a1,1,0,0,0,0,.63,1.16,1.16,0,0,0,1.53.56,4.34,4.34,0,0,0,.77.88,2.31,2.31,0,0,1,.65.73c0.26,0.69-.76,2.09-1.2,2.67l-0.09.36a8.18,8.18,0,0,1,.55,1.14,12.53,12.53,0,0,1,.52,2.68l0.73,0.66,0.19,0.59,0.32,0.2a1.56,1.56,0,0,0,1.16.32,0.34,0.34,0,0,0,.21-0.48c-0.09-.24-0.86-1-1.07-1.33a8.24,8.24,0,0,0-.53-0.66,24,24,0,0,0-.43-3.07,9.92,9.92,0,0,0,1.66-1.72c0.48-.72,1.1-1.52,1.31-1.78A1.29,1.29,0,0,1,164,81a2.53,2.53,0,0,1,.07,1.18l0.37,0.42a6.93,6.93,0,0,1,2.37,1.71l1.41,0.2,0.42,0.44h0.15a7,7,0,0,0,2.33,3.14l0.15,0.1,2.15,1.49a15.27,15.27,0,0,1,1.6,1.2,4.34,4.34,0,0,1,.32,2.24,0.75,0.75,0,0,0,.42.78,1,1,0,0,0,.89-0.18,8.3,8.3,0,0,1,2.07-1.23,17.42,17.42,0,0,1,1.87.44l2.57,0.66h0.05a7.59,7.59,0,0,0,3.33,0l0,0,0.15,0.23a3.4,3.4,0,0,0,1.93-.18l1,1.64c0.06,0.28-.09,1.29.33,1.26s2-.58,2.15-0.58a1,1,0,0,1,0,.61c0.05,0.85-.54.94-0.48,2.09l-1.53,2.85c-0.75,0-1.08-.46-1.83-0.43a2.54,2.54,0,0,0-.75.26v0.28l0.76,0a0.47,0.47,0,0,1,.36.24,3.1,3.1,0,0,0-1.35.73l0.12,0.31a4.3,4.3,0,0,1,1.29-.46,2,2,0,0,1,.66.09,4.08,4.08,0,0,0-.45.95l0.32,0.16a2.66,2.66,0,0,1,1.13-.86,1.76,1.76,0,0,1,1.2.92l0.34-.12a4.57,4.57,0,0,0-1-1.7l1.56-2.67a0.54,0.54,0,0,1,.52.22c0.27,0.38.54,0.84,0.54,0.84l0.88-1.9-0.56,2.84c0.11,0.07.84,0.67,0.85,0.67h0l1.06-.19,0.06,0s0.67-3,.65-3.31,0-1.3,0-1.68h0.55c0.79,0,1.9-1.31,2.44-1.59a9.68,9.68,0,0,0-.55,1.82,7.85,7.85,0,0,1-.15,1.26,15.41,15.41,0,0,0-.67,2,1.51,1.51,0,0,0,0,.26A5.11,5.11,0,0,0,200,97l0-.48a4.78,4.78,0,0,0-1-3,2.68,2.68,0,0,1-.75-1.78,2.05,2.05,0,0,1,.56-1.42,2.21,2.21,0,0,1,1.59-.68,2.74,2.74,0,0,1,2,1,8.67,8.67,0,0,1,2.13,5.88l0,0.91a8.38,8.38,0,0,1-.33,1.68,19.87,19.87,0,0,0,2.34-5.79c0.9-3.67.24-5.07,0.06-7.06-0.11-1.13-.23-2.6-1.87-2.63s-1.46,4.1-4.08,4.21a2.43,2.43,0,0,1-.95-0.37l0.14-1.18a1.69,1.69,0,0,0,1.39-1.65,1,1,0,0,0-.11-0.47,2.58,2.58,0,0,0,1.15-2.32l1.34-.43L202.84,81l0.17-.59-0.71-.11,0.1-.77-0.63,0-0.17-.94-0.95,1.1a1.7,1.7,0,0,0-1,0,1.17,1.17,0,0,0-1.14.49l-0.27.54c0.83-.27,1.21.14,1.25,0.58a2.57,2.57,0,0,0,.52,1.14l-0.28.36a4.46,4.46,0,0,0-1.67-.39,3.48,3.48,0,0,0-1.69.88,1.39,1.39,0,0,0-1,.27l-0.28.25a1.26,1.26,0,0,1-.47-1c0-.53,1.54-1.05,1.77-2.09A16.86,16.86,0,0,0,194,82.24c-1,.67-1.2,1.18-1.2,3.91,0,3-.49,3.88-0.49,3.88a15.5,15.5,0,0,1,.05,2.53,15.64,15.64,0,0,1-2.31,2l-1-1.8a2.24,2.24,0,0,0,.09-0.43c0.08-.07.16-0.09,0.25-0.16A6.36,6.36,0,0,0,191,90.08a8.4,8.4,0,0,0,.62-4c0-3.94.2-3.93,4.11-6l-0.78-4.81-1,.16a5.56,5.56,0,0,1-2.43-.59c-0.61-.29-2.06-1.39-1.93-2.17A3.06,3.06,0,0,0,187.73,69a3.22,3.22,0,0,0-4.09,1,1.62,1.62,0,0,1-1.11.31,4.94,4.94,0,0,1-4.32-2.65l-3.26,1.9a6.88,6.88,0,0,0-1.56-1.46c-0.5-.3-1.25-1.23-1.88-1a12.57,12.57,0,0,0-1.45,1.39c-0.2.16-.76,0.85-1,1.08a11.12,11.12,0,0,0-2.21-2.15A2.55,2.55,0,0,1,166,66.7c0-.2,1.84-0.53,1.59-1.37-0.14-.49-1.1-0.54-1.34-0.56a3.21,3.21,0,0,0-1.27-.57l-0.7-1.61-0.27,1-0.72-.69L163.13,64l-0.91-.46,0.3,0.89-1.17-.2Zm41,50.88a2,2,0,0,1,1.58-1,1.2,1.2,0,0,0-.83-0.51L200.61,113c1.23,1.21,1.66,1.68,2.79,3m-0.08-18.73a6.84,6.84,0,0,0,0-.8,7.8,7.8,0,0,0-1.82-5.14,1.7,1.7,0,0,0-1.17-.63,1.06,1.06,0,0,0-.74.32,1,1,0,0,0-.24.67,1.52,1.52,0,0,0,.45,1,5.8,5.8,0,0,1,1.3,3.78c0,0.2,0,.39,0,0.58a6.26,6.26,0,0,1-2.45,4.34,8,8,0,0,1-4.46,1.55l-0.47,0a1.84,1.84,0,0,1-.27,0l-0.55-.09a2.72,2.72,0,0,1-.14,1.78c-0.4.52-1.88,0-1.88,0l-0.21.16,0.85,0.64a43.56,43.56,0,0,0,6.34,4.65l0.08,0.05,3.88,1.94,3.3,1.4a9.9,9.9,0,0,1,1.72.82C208.32,115.13,209,116,209,117a1.68,1.68,0,0,1-1.44,1.75,1.18,1.18,0,0,1-1.06-1.41,1.12,1.12,0,0,0-2.23,0,3.31,3.31,0,0,0,3.36,3.54,3.79,3.79,0,0,0,3.58-3.89c0-1.76-1.05-3.31-3.14-4.57a13.27,13.27,0,0,0-2-1l-3.2-1.37-1.33-.66,0.84,0c2.17,0,7.28,0,7.28-3.8a1.1,1.1,0,0,0-1.11-1.07,1.16,1.16,0,0,0-.79.32,1.09,1.09,0,0,0-.32.75c0,0.77-.58,1.66-5.07,1.66a14.75,14.75,0,0,1-7.21-2.22,9.34,9.34,0,0,0,5-2.08,8.4,8.4,0,0,0,3.25-5.79m5.16,25.14a78.36,78.36,0,0,1,14.85,45.45c0.27,44.5-36.88,80.91-82.84,81.18S56.93,213.3,56.67,168.8a78.51,78.51,0,0,1,14.87-46.4A5.46,5.46,0,0,1,67.15,117c0-4.39,4.83-6.43,5.22-6.61a5,5,0,0,1-3.57-4.72,2.76,2.76,0,0,1,5.5-.28,11.32,11.32,0,0,0,3.42.34,10,10,0,0,0,2.73-.41C79.88,105,75,102.23,75,96.51a9.58,9.58,0,0,1,3.62-7.62H70.54V78.45H82.23q0.33-2.74,4.35-5.58L87,72.58a8,8,0,0,0,.93-0.69c0-.26-0.05-0.51-0.05-0.75A4.93,4.93,0,0,1,91,66.44a5.33,5.33,0,0,1,6.28,1.23,31.78,31.78,0,0,1,5.44-.88,6.2,6.2,0,0,1,3.43.86l7.5-8.67L114,59.29l3.65,3,1.92,1.55a6.51,6.51,0,0,1,4.55-5.7v-4h2.48c0-5.66,3.73-9.54,9.1-9.54a8.74,8.74,0,0,1,1.25.14V41h-4V34.93h4V31h6.52v3.95h4V41h-4v3.6a5.26,5.26,0,0,1,.85-0.09c5.3,0,9.11,4,9.11,9.45v0.09h2.1v4a6.32,6.32,0,0,1,4.71,4.9s4.14-3.22,4.31-3.37a0.41,0.41,0,0,1,.58.11c0.1,0.19.94,2.22,1.27,2.94,0.18,0.09.37,0.2,0.54,0.3a2.56,2.56,0,0,1,2.6,2.57,2.11,2.11,0,0,1-.23.89,3.62,3.62,0,0,1,1.43-1.09c1.36-.51,2.34.08,4.53,1.79L178.91,65l1.54,2.56a2.54,2.54,0,0,0,1,.61,9.15,9.15,0,0,0,1,.22,5.21,5.21,0,0,1,6.09-1.15,4.88,4.88,0,0,1,3,4.62,5,5,0,0,1,0,.65,3.76,3.76,0,0,0,.75.59,5.42,5.42,0,0,0,1.38.43s2.4-.4,2.4-0.4l0.49-.09,0.71,4.38a2,2,0,0,1,.4.27,2,2,0,0,1,.38.4,4.78,4.78,0,0,1,1.67-.36l1.68-1.9a0.29,0.29,0,0,1,.47.07c0.11,0.19,4,5.92,4,5.92,2.27,0.73,2.5,3.24,2.6,4.2l0.15,1.19a14.8,14.8,0,0,1,.26,2.65,15.89,15.89,0,0,1-.52,3.85,22.7,22.7,0,0,1-3.22,7.46c-0.7,1.15-2.3,1.58-2.89,2.12a17.12,17.12,0,0,1-2.69,2.07,9.71,9.71,0,0,0,2.66.4,11,11,0,0,0,3.44-.34,2.7,2.7,0,0,1,.79-1.61,2.8,2.8,0,0,1,2-.79,2.72,2.72,0,0,1,2.77,2.68c0,2.26-1.26,3.87-3.64,4.71a11,11,0,0,1,1.29.67c3.27,2,4,4.35,4,6a5.55,5.55,0,0,1-4.37,5.34M141.2,226.08c32.1-.54,58.12-25.78,58.55-56.9H141.2v56.9m0-58.85h58.55c-0.63-31-26.56-56-58.55-56.55v56.55Zm-2-56.55c-32,.5-58,25.57-58.61,56.55h58.61V110.67Zm0,58.5H80.56c0.43,31.14,26.48,56.4,58.61,56.9v-56.9Zm62.59-.8c0,32.89-27.65,59.65-61.62,59.65s-61.62-26.76-61.62-59.65,27.65-59.66,61.62-59.66,61.62,26.76,61.62,59.66M90.94,211.63c-0.22-.25-0.73-0.89-1.31-1.54a0.27,0.27,0,0,0-.38-0.09,0.23,0.23,0,0,0,.06.31c0.71,0.8.71,1-.82,2.25l-5,4.21c-0.13.12-.2,0.15-0.56-0.25-0.88-1-.67-2.08.48-3a2,2,0,0,1,2.72-.08c0.23,0.25.35,0.25,0.45,0.18s-0.1-.39-0.17-0.48a3.24,3.24,0,0,0-4.66-.38c-1.24,1-.81,2.6.31,3.86,0.42,0.45,1,1,1.32,1.39s0.76,0.91,1.23,1.42c0.16,0.2.29,0.22,0.36,0.15s0.1-.19,0-0.34c-0.54-.6-0.6-0.86.1-1.44l4.84-4.09c1.27-1.07,1.51-1.07,2-.55,0.11,0.11.22,0.17,0.29,0.1s0.1-.21-0.07-0.38c-0.34-.39-0.91-1-1.14-1.2m-15.56-4.85c0.79,1.23,2.4,2.25,5.15.61,2.32-1.37,3.38-3.69,2.07-5.77-0.47-.76-1.93-2.29-5.17-0.4-2.5,1.47-3.16,3.78-2.05,5.56m8.16-5.11a4.87,4.87,0,0,1-1.63,7.15,5.27,5.27,0,0,1-7.37-2c-1.74-2.77-1.18-5.48,1.42-7a5.4,5.4,0,0,1,7.58,1.85M79,195.12c0.07,0.18.15,0.24,0.25,0.21s0.16-.19.06-0.39c-0.24-.62-0.49-1.2-0.53-1.3-0.08-.25-0.23-0.73-0.52-1.53-0.09-.22-0.19-0.33-0.34-0.27s-0.1.12,0,.31c0.27,0.74.19,1.12-1,1.57l-5.06,1.85,4.32-8.77a0.87,0.87,0,0,0,.11-0.56c-0.06-.13-0.22-0.18-0.53-0.07l-7.91,2.62c-0.78.25-1.07,0.23-1.3-.38-0.07-.19-0.16-0.28-0.25-0.24s-0.13.21-.08,0.4c0.24,0.6.46,1.05,0.5,1.18s0.26,0.86.49,1.48c0.11,0.24.21,0.38,0.33,0.34s0.13-.17.08-0.32c-0.31-.82-0.2-1.05.76-1.4l5.45-2-4.46,8.66a1.23,1.23,0,0,0-.15.75c0.06,0.13.26,0.13,0.55,0l7.66-2.56c1.26-.41,1.38-0.21,1.6.42m-11.84-9.94c0.14,0,.28-0.06.23-0.23a0.2,0.2,0,0,0-.23-0.18c-0.48,0-.81-0.26-1-1.25l-0.38-1.82,6.5-1.09c2.06-.35,2.25-0.26,2.38.45,0,0.15.09,0.27,0.23,0.22S75,181.18,75,181c-0.09-.5-0.27-1.32-0.33-1.6s-0.17-1.17-.32-2c0-.18-0.13-0.31-0.25-0.28s-0.16.16-.14,0.29c0.19,1,.09,1.16-2.08,1.54L65.47,180l-0.23-1.55c-0.19-1.14,0-1.46.56-1.58,0.23-.07.3-0.15,0.28-0.26a0.26,0.26,0,0,0-.31-0.12l-1.52.2c-0.26,0-.34.11-0.32,0.23a6,6,0,0,1,.36,1.2l1,5.71a3.83,3.83,0,0,1,0,1.19c0,0.12.1,0.14,0.35,0.18a11,11,0,0,0,1.55,0m-3-11.3c0-.72.18-0.82,0.66-0.87s0.79-.06,2.8-0.17l2.31-.12c1.28-.06,2.32-0.11,2.86-0.07a0.6,0.6,0,0,1,.71.74c0,0.15.06,0.28,0.17,0.27s0.21-.12.2-0.33c0-.51-0.13-1.34-0.13-1.63s0-1.17-.05-2c0-.23-0.1-0.32-0.22-0.32a0.22,0.22,0,0,0-.17.28c0,0.72,0,1.09-.56,1.14s-1.61.13-2.89,0.19l-2.32.11c-2,.1-2.36.13-2.78,0.12a0.65,0.65,0,0,1-.77-0.78,0.23,0.23,0,0,0-.23-0.26c-0.1,0-.15.12-0.14,0.35,0,0.5.1,1.25,0.11,1.58s0,1.18.05,1.68c0,0.26.09,0.38,0.2,0.37a0.22,0.22,0,0,0,.19-0.28m-0.39-7.56c0.11,0,.17-0.09.18-0.28,0.07-.91.24-1,1.58-0.92l5.92,0.4c1.83,0.13,1.9.31,1.85,1,0,0.16,0,.27.17,0.28s0.18-.09.2-0.31c0-.5.08-1.33,0.08-1.66s0.13-1.15.18-2c0-.25-0.05-0.35-0.16-0.35s-0.19.1-.2,0.26c-0.07,1-.09,1.16-2,1l-2.09-.14c-0.05,0-.07,0-0.07-0.1s0.12-1.5.18-1.82a0.75,0.75,0,0,1,.88-0.62,0.2,0.2,0,0,0,.24-0.15c0-.19-0.13-0.21-0.3-0.21-1-.08-1.5-0.27-1.78-0.28a0.14,0.14,0,0,0-.18.12,1.26,1.26,0,0,1,.33.81l-0.13,2.12a0.06,0.06,0,0,1-.06.08l-3.84-.26a0.09,0.09,0,0,1-.09-0.09l0.18-1.95a0.81,0.81,0,0,1,.4-0.76,1,1,0,0,1,.49-0.06c0.19,0,.29-0.05.3-0.17a0.23,0.23,0,0,0-.24-0.2c-0.16,0-.93-0.12-1.06-0.14l-0.5-.11a0.17,0.17,0,0,0-.09,0,0.18,0.18,0,0,0-.21.14,0.33,0.33,0,0,0,0,.14v0.05a1.89,1.89,0,0,1,0,.56c0,0.29-.18,2.91-0.23,3.4s-0.12,1.18-.16,1.85c0,0.26,0,.37.16,0.39M65,156.39c0.15-.7.37-0.75,0.87-0.69s0.78,0.13,2.76.47l2.29,0.43c1.25,0.22,2.27.42,2.78,0.58s0.62,0.36.51,0.89c0,0.15,0,.27.11,0.29s0.23-.06.28-0.28c0.07-.5.2-1.33,0.26-1.61s0.27-1.14.44-2c0-.22,0-0.34-0.14-0.35a0.24,0.24,0,0,0-.23.23c-0.14.71-.28,1-0.84,1s-1.57-.24-2.84-0.47l-2.28-.43c-2-.35-2.33-0.4-2.72-0.51a0.65,0.65,0,0,1-.56-0.94,0.22,0.22,0,0,0-.15-0.3c-0.11,0-.19.09-0.23,0.3-0.1.5-.21,1.25-0.27,1.57s-0.26,1.15-.35,1.64c-0.06.25,0,.39,0.09,0.41a0.22,0.22,0,0,0,.24-0.24m5.82-6.23c3.55,1.24,6.1-1,7.17-4a7.7,7.7,0,0,0,.52-2.32,0.55,0.55,0,0,0-.27-0.5,12.19,12.19,0,0,0-1.6-.84,0.2,0.2,0,0,0-.29.09c-0.05.13,0,.18,0.2,0.32,0.94,0.63,1.15,1.35.54,3.08-0.76,2.15-2.82,3.3-5.76,2.33-2.31-.87-3.54-2.37-2.71-4.7,0.51-1.43,1.59-2.69,2.91-2.26,0.22,0.07.37,0,.4-0.09S71.88,141,71.67,141s-0.94-.34-1.34-0.5l-0.66-.28a0.25,0.25,0,0,0-.3.17,26.55,26.55,0,0,0-1.41,2.87c-1,2.89-.2,6,2.87,7m0.61-13.56c0.33-.65.56-0.63,1-0.44s0.72,0.33,2.51,1.19l2.08,1a26.29,26.29,0,0,1,2.5,1.32c0.51,0.3.48,0.5,0.25,1-0.08.13-.11,0.26,0,0.3s0.23,0,.34-0.2c0.23-.47.57-1.22,0.72-1.48s0.59-1,1-1.76c0.1-.2.08-0.32,0-0.39a0.24,0.24,0,0,0-.29.18c-0.34.64-.59,0.92-1.08,0.71s-1.47-.67-2.6-1.22l-2.07-1c-1.79-.88-2.12-1-2.47-1.24a0.63,0.63,0,0,1-.27-1A0.23,0.23,0,0,0,73,133.2a0.31,0.31,0,0,0-.3.25c-0.23.43-.56,1.13-0.71,1.42s-0.6,1-.81,1.48c-0.13.23-.12,0.37,0,0.42a0.24,0.24,0,0,0,.31-0.15m7.8-8.68-0.06,0,0,0,2.28,3.2,1.63-2.23Zm-2-1.22A0.74,0.74,0,0,1,77,126a0.6,0.6,0,0,1,.62,0c0.78,0.14,6.41,1.42,8.56,1.83,0.76,0.17,1.56.27,1.93-.23,0.1-.13.18-0.17,0.28-0.11s0.1,0.2-.23.66c-0.19.27-.56,0.71-0.78,1s-0.65,1-.8,1.2-0.37.36-.46,0.29a0.21,0.21,0,0,1,0-.28,1.47,1.47,0,0,0,.23-0.68L84,129.12a0.11,0.11,0,0,0-.12.07L82,131.73a0.11,0.11,0,0,0,0,.14l0.78,1.18a3,3,0,0,0,.56.6c0.15,0.12.33,0.11,0.57-.23s0.27-.3.38-0.23,0.1,0.19,0,.34c-0.24.34-.61,0.79-0.85,1.11-0.09.12-.48,0.72-0.87,1.27-0.13.18-.23,0.22-0.34,0.14s-0.08-.18,0-0.26a1.29,1.29,0,0,0-.11-1.83ZM87.34,115c0.67-.56.88-0.55,1.77,0.48l2.52,2.91c2,2.29,3.95,2.47,6.11.71,2.33-1.88,1.91-4,0-6.24l-2.15-2.53c-0.87-1-1-1.15-.35-1.67,0.16-.14.19-0.25,0.11-0.35s-0.19,0-.38.1c-0.4.32-.78,0.67-1.13,1s-0.7.5-1.22,0.93c-0.2.15-.23,0.26-0.15,0.34s0.2,0.09.34,0c0.76-.62.93-0.45,1.77,0.52l2.33,2.7c1.67,2,2,3.28.54,4.5-1.69,1.37-3.08.43-4.41-1.13l-2.48-2.86c-0.84-1-.86-1.21-0.31-1.64a0.25,0.25,0,0,0,.09-0.33c-0.09-.09-0.21-0.08-0.4.08-0.38.3-.84,0.74-1.23,1.07-0.55.44-1,.73-1.53,1.17-0.19.15-.23,0.27-0.15,0.37s0.2,0.08.35,0m16.14-2.49c0.63,1.14.44,1.27-.16,1.59-0.18.1-.23,0.19-0.18,0.27s0.21,0.13.41,0c0.61-.32,1.14-0.65,1.24-0.7s0.7-.34,1.48-0.75c0.2-.11.29-0.23,0.22-0.35s-0.14-.08-0.31,0c-0.71.38-1.12,0.35-1.77-.72l-2.68-4.55,9.63,2.73a0.84,0.84,0,0,0,.57,0c0.13-.07.15-0.24,0-0.5l-3.9-7.15c-0.38-.72-0.41-1,0.19-1.31,0.18-.1.26-0.2,0.2-0.29s-0.24-.09-0.42,0c-0.57.3-1,.6-1.14,0.65s-0.82.39-1.43,0.71c-0.23.14-.33,0.26-0.28,0.37s0.2,0.1.33,0c0.79-.41,1-0.34,1.54.51l2.95,4.88-9.52-2.87a1.2,1.2,0,0,0-.79,0c-0.14.07-.12,0.26,0,0.52Zm8.79-12.78c0.7-.25.85-0.08,1.05,0.36s0.3,0.72,1,2.53l0.8,2.11a27,27,0,0,1,.9,2.62c0.15,0.56,0,.69-0.52.88-0.15.06-.24,0.12-0.21,0.24s0.18,0.16.39,0.08l1.56-.61c0.33-.11,1.16-0.35,2-0.64,0.22-.07.29-0.2,0.23-0.3a0.23,0.23,0,0,0-.32-0.08c-0.69.26-1.08,0.3-1.28-.17s-0.61-1.45-1.06-2.62L116,102c-0.69-1.83-.82-2.15-0.93-2.53-0.16-.55,0-0.74.54-0.94,0.11,0,.26-0.12.19-0.28s-0.17-.11-0.39,0c-0.48.17-1.19,0.46-1.52,0.58l-1.64.54c-0.26.09-.34,0.2-0.3,0.28a0.22,0.22,0,0,0,.32.09m6.26-2.32a1.44,1.44,0,0,1,1.66.68l5.17,7.18a0.74,0.74,0,0,0,.55.45,0.82,0.82,0,0,0,.39-0.74l1.79-8.27c0.22-1,.39-1.36,1-1.49,0.18,0,.26-0.11.24-0.22s-0.16-.16-0.39-0.11c-0.39.07-.72,0.2-1.21,0.31s-0.73.1-1.39,0.23c-0.3.07-.43,0.16-0.38,0.29s0.16,0.13.32,0.09c0.42-.08.63,0,0.67,0.11a0.82,0.82,0,0,1,0,.46L125.77,103l-3.45-5.12a3.8,3.8,0,0,1-.51-0.89c-0.08-.28.29-0.35,0.51-0.4s0.25-.11.22-0.22-0.2-.15-0.4-0.11c-0.66.14-1.27,0.31-1.6,0.38s-1.22.2-1.91,0.35c-0.24,0-.39.15-0.36,0.27s0.11,0.15.25,0.12M132.13,95c0.74,0,1,.11,1.08.65s0.06,0.75.19,2.69l0.15,2.26c0,0.67.07,1.31,0.1,1.82,0.09,1.44,0,1.57-.75,1.63-0.16,0-.26.06-0.26,0.18s0.11,0.19.34,0.16c0.53,0,1.38-.12,1.68-0.13,1.42-.09,2.73-0.1,4-0.18a0.43,0.43,0,0,0,.44-0.41,12.64,12.64,0,0,0,.07-1.43c0-.17,0-0.31-0.2-0.28s-0.18.1-.19,0.25a1,1,0,0,1-.5.92,6.64,6.64,0,0,1-1.66.26c-1,.06-1.09,0-1.14-0.84,0-.38-0.1-1.51-0.2-3a0.08,0.08,0,0,1,.08-0.08l1.82-.08a0.75,0.75,0,0,1,.79.85,0.19,0.19,0,0,0,.19.18c0.19,0,.2-0.19.19-0.32a16.2,16.2,0,0,1,0-1.8,0.15,0.15,0,0,0-.16-0.16,1.51,1.51,0,0,0-.33.26,2,2,0,0,1-1.13.31c-0.56,0-1.23.06-1.41,0.08s-0.12,0-.12-0.08L135,95.31a0.06,0.06,0,0,1,.05-0.07c2.58-.16,2.68-0.1,2.84.74,0,0.09,0,.24.19,0.24a0.21,0.21,0,0,0,.2-0.23,9.54,9.54,0,0,1,.06-1.66c0-.11-0.06-0.2-0.17-0.19a3.11,3.11,0,0,1-.78.19l-3.33.2c-0.38,0-1.21,0-1.95.08-0.24,0-.35.09-0.32,0.21s0.09,0.16.3,0.15m13.05,4.29c0,0.21.29,0.33,1,.4,1.2,0.1,1.75-.75,1.85-1.92a2,2,0,0,0-1.75-2.43c-0.75-.07-0.77,0-0.78.1Zm-3,4.76c-0.23,0-.32-0.1-0.31-0.22s0.14-.16.28-0.15c0.76,0.06.9-.23,1-1.48l0.59-6.11c0.11-1.14.09-1.34-.93-1.44-0.2,0-.3-0.09-0.26-0.21s0.1-.16.38-0.14c0.71,0.07,1.52.16,1.81,0.2,0.45,0,1.48.08,1.87,0.11,1.72,0.15,3.37.85,3.2,2.66a3.44,3.44,0,0,1-2,2.68c2.33,3.81,3.21,4.49,4.24,4.58a0.2,0.2,0,0,1,.22.2c0,0.13-.13.18-0.34,0.15l-1.27-.12c-1.46-.13-2.16-0.91-3.07-2.4-0.37-.58-0.7-1.22-1.14-1.83a0.24,0.24,0,0,0-.2-0.12l-1.17-.14s0,0,0,0l-0.19,2c-0.13,1.35,0,1.62,1,1.71a0.2,0.2,0,0,1,.21.19c0,0.1-.11.18-0.33,0.16l-2-.22c-0.27,0-1.11,0-1.63-.1m13.16,1.93c1.72,0.41,3.59-.23,4-2,0.76-2.93-3-4.26-2.59-6.12a1.34,1.34,0,0,1,1.78-.88,1.59,1.59,0,0,1,1.35,1.77,0.25,0.25,0,0,0,.14.34c0.14,0,.23-0.07.31-0.38,0.25-1,.38-1.33.42-1.48a0.22,0.22,0,0,0-.13-0.25,6.07,6.07,0,0,0-1.74-.65c-1.83-.43-3.32.28-3.67,1.72-0.71,2.81,3,4.06,2.48,6.25a1.56,1.56,0,0,1-2,1,1.81,1.81,0,0,1-1.47-2.28,0.23,0.23,0,0,0-.13-0.31c-0.14,0-.25.09-0.32,0.32l-0.5,1.74c-0.11.37,0.74,0.9,2,1.21m6.25,1.55c0.5,0.16,1.31.42,1.59,0.52s1.12,0.45,1.94.75c0.21,0.08.35,0,.4-0.08a0.27,0.27,0,0,0-.21-0.26c-0.7-.25-1-0.46-0.86-0.95s0.51-1.49,1-2.65l0.81-2.1c0.7-1.83.83-2.17,1-2.53a0.66,0.66,0,0,1,1-.37,0.24,0.24,0,0,0,.34-0.1c0-.1-0.06-0.19-0.28-0.26l-1.53-.51-1.62-.63c-0.25-.09-0.38-0.07-0.42,0a0.22,0.22,0,0,0,.19.27c0.69,0.26.72,0.48,0.58,0.95s-0.26.73-1,2.55l-0.81,2.11c-0.45,1.15-.82,2.11-1.06,2.57s-0.47.53-1,.33c-0.15,0-.28-0.05-0.31.06s0,0.23.23,0.3m10.23,1.35c-0.85,1.47-.89,1.79.61,2.6,2.44,1.33,4.22,1,5.65-1.56s0.39-4.84-2.14-6.22c-0.81-.44-0.89-0.36-1.1,0l-3,5.18m-3.79.69c0.07-.12.22-0.08,0.49,0.08,0.51,0.27.7,0.16,2.31-2.65l1.14-2c1-1.7,1.13-2,1.34-2.37s0.09-.75-0.54-1.11c-0.18-.09-0.23-0.18-0.16-0.29s0.18-.11.41,0c0.59,0.33,1.31.77,1.63,1s1.12,0.56,1.83.94c3.48,1.89,5.19,4.31,3.45,7.34s-4.91,3.22-7.83,1.62c-0.85-.47-1.81-1.16-2.38-1.47-0.29-.15-1-0.51-1.49-0.77-0.21-.11-0.26-0.22-0.21-0.33m15.52,5.5,2.15,1.76,1.34-3.67,0-.06a0.06,0.06,0,0,1,0,0Zm-4.87.3a1.42,1.42,0,0,0,1.9.05l7.87-4.07a0.72,0.72,0,0,1,.71-0.15,0.55,0.55,0,0,1,0,.6c-0.22.74-2,6.06-2.63,8.08-0.23.73-.42,1.5,0.06,1.9,0.14,0.1.17,0.17,0.09,0.28s-0.23.08-.65-0.28c-0.26-.21-0.67-0.62-0.95-0.83s-1-.73-1.16-0.88-0.33-.39-0.26-0.48a0.23,0.23,0,0,1,.29,0,1.36,1.36,0,0,0,.68.28l0.77-2.22a0.13,0.13,0,0,0-.06-0.12l-2.47-2a0.1,0.1,0,0,0-.13,0l-1.29.66a2.85,2.85,0,0,0-.65.48c-0.13.14-.13,0.31,0.2,0.58s0.3,0.29.2,0.39-0.21.08-.35,0c-0.33-.26-0.75-0.65-1.07-0.9-0.12-.09-0.7-0.53-1.23-1-0.17-.14-0.23-0.24-0.12-0.34s0.18-.07.27,0M191.95,124c-1.34,1.07-1.51,1.36-.41,2.66,1.78,2.09,3.54,2.36,5.84.53s2.17-4.39.32-6.56c-0.59-.69-0.7-0.65-1-0.39L191.95,124m-3.37-.44c0.38,0.43.59,0.39,3.16-1.65l1.78-1.44,2.16-1.73c0.4-.33.35-0.68-0.1-1.21-0.15-.16-0.15-0.26-0.07-0.34s0.22,0,.39.17c0.44,0.51.94,1.18,1.17,1.46s0.83,0.92,1.33,1.51c2.55,3,3.24,5.84.48,8.06s-5.78,1.28-7.91-1.23c-0.61-.73-1.25-1.73-1.67-2.2-0.19-.25-0.75-0.85-1.09-1.25-0.15-.17-0.16-0.3-0.07-0.37s0.23,0,.43.23M202.64,146a0.64,0.64,0,0,0,.56.17,11.47,11.47,0,0,0,1.76-.43,0.21,0.21,0,0,0,.16-0.26c-0.06-.12-0.12-0.13-0.38-0.1-1.13.14-1.78-.22-2.55-1.91-0.94-2.08-.22-4.27,2.61-5.48,2.31-.89,4.26-0.58,5.29,1.67,0.63,1.38.71,3-.57,3.58-0.21.09-.3,0.2-0.24,0.32s0.2,0.13.42,0.06,0.92-.35,1.34-0.52,0.61-.18.68-0.22a0.23,0.23,0,0,0,.1-0.32,21.18,21.18,0,0,0-1-3c-1.27-2.8-4-4.52-7-3.26-3.48,1.43-3.79,4.73-2.45,7.68a9,9,0,0,0,1.22,2.05m5.14,4.31,0.66,2.66,3.34-2.18,0,0h0l-0.07,0Zm-4.09-2.53c0.2,0.76.52,1,1.49,1.13l8.84,1.23a0.72,0.72,0,0,1,.66.28,0.55,0.55,0,0,1-.36.48c-0.63.47-5.34,3.72-7.08,5-0.64.45-1.25,1-1.09,1.56,0,0.15,0,.23-0.12.28s-0.22-.06-0.36-0.6c-0.08-.32-0.16-0.88-0.25-1.21s-0.34-1.13-.41-1.37,0-.49.09-0.52a0.21,0.21,0,0,1,.22.16,1.39,1.39,0,0,0,.39.64l2-1.37a0.14,0.14,0,0,0,0-.13l-0.76-3a0.11,0.11,0,0,0-.1-0.1l-1.43-.2a2.76,2.76,0,0,0-.82,0c-0.2,0-.31.17-0.2,0.57s0.07,0.4-.09.42-0.2-.05-0.23-0.21c-0.11-.4-0.23-1-0.31-1.34-0.06-.15-0.26-0.82-0.42-1.48-0.05-.21,0-0.3.12-0.34s0.19,0.07.21,0.17m10.67,10c-0.15,0-.28,0-0.27.21a0.22,0.22,0,0,0,.23.19c0.48,0,.79.33,0.91,1.33l0.22,1.85-6.58.55c-2.08.18-2.27,0.07-2.34-.65,0-.16-0.06-0.28-0.19-0.24s-0.18.09-.16,0.32c0,0.5.15,1.32,0.18,1.62s0.07,1.19.14,2c0,0.19.11,0.32,0.24,0.29s0.15-.14.15-0.26c-0.09-1,0-1.18,2.23-1.36l6.49-.53,0.1,1.55c0.08,1.15-.16,1.46-0.71,1.54-0.24,0-.31.11-0.31,0.23a0.28,0.28,0,0,0,.31.15l1.54-.07c0.25,0,.36-0.08.32-0.2a6,6,0,0,1-.24-1.22l-0.51-5.79a4.62,4.62,0,0,1,.11-1.18c0-.12-0.08-0.14-0.31-0.19a10,10,0,0,0-1.54-.15m1.5,16.66c0.13-1.44-.54-3.17-3.77-3.43-2.73-.25-5,1-5.21,3.48-0.08.87,0.17,3,3.91,3.27,2.95,0.25,4.86-1.25,5.06-3.32m2.32,2.29a0.36,0.36,0,0,1-.07.53,6.11,6.11,0,0,1-.54.31,0.27,0.27,0,0,1-.38-0.16s-0.36-1.35-.64-2.36c-0.35,3.13-2.43,4.93-5.42,4.69a5.19,5.19,0,0,1-5-5.85,5.08,5.08,0,0,1,5.69-4.82,5,5,0,0,1,4.7,5c0.5,0.73,1.56,2.55,1.62,2.64m-3.57,7.48c-0.24.9-.45,0.84-1.95,0.47l-5-1.25c-2.06-.53-2.32-0.65-2.11-1.42,0-.15,0-0.28-0.1-0.29s-0.21,0-.29.26c-0.12.5-.3,1.28-0.37,1.57-0.27,1-.58,1.82-1.06,3.63-0.18.65-.14,0.79,0.15,0.94a15.84,15.84,0,0,0,1.61.63c0.21,0.05.31,0,.34-0.1a0.21,0.21,0,0,0-.21-0.25c-0.85-.38-1.13-0.72-0.78-2,0.42-1.58.61-1.68,2.36-1.23l5,1.25c1.63,0.42,1.64.52,1.43,1.33-0.05.21,0,.31,0.11,0.34s0.19,0,.25-0.27c0.14-.5.35-1.42,0.43-1.71s0.35-1.12.5-1.72c0.07-.24,0-0.34-0.09-0.38s-0.19,0-.24.25m-3.19,10.21c-0.27.66-.5,0.66-1,0.52s-0.75-.26-2.6-1l-2.15-.84a27.54,27.54,0,0,1-2.62-1.11c-0.52-.26-0.53-0.47-0.32-1,0.06-.14.07-0.26,0-0.31s-0.23,0-.32.22c-0.17.49-.47,1.27-0.58,1.54s-0.49,1.06-.83,1.84c-0.09.2-.05,0.32,0.08,0.38a0.27,0.27,0,0,0,.27-0.19c0.27-.68.49-1,1-0.81s1.52,0.53,2.69,1l2.14,0.85c1.86,0.73,2.2.85,2.58,1a0.63,0.63,0,0,1,.36,1,0.22,0.22,0,0,0,.09.32c0.1,0,.19-0.05.29-0.26,0.18-.46.44-1.17,0.56-1.48s0.5-1.09.7-1.54c0.09-.24.08-0.38,0-0.41a0.24,0.24,0,0,0-.29.18m-6.94,5c-3.24-1.89-6.18-.19-7.87,2.59a8.09,8.09,0,0,0-1,2.17,0.55,0.55,0,0,0,.18.54,13,13,0,0,0,1.39,1.13c0.14,0.07.25,0.08,0.31,0s0-.18-0.14-0.36c-0.8-.81-0.86-1.54.09-3.12,1.19-2,3.43-2.7,6.12-1.18,2.1,1.29,3,3,1.71,5.13-0.78,1.31-2.11,2.35-3.31,1.66-0.2-.11-0.35-0.11-0.42,0s0,0.23.21,0.36,0.83,0.51,1.21.74,0.49,0.36.59,0.42,0.2,0,.32-0.13a21.74,21.74,0,0,0,2-2.53c1.6-2.65,1.4-5.81-1.38-7.39m-7.4,14.73L197,214l-2-3.39-1.83,2.08,3.78,1.32,0.07,0h0Zm1.79,1.35c0.22,0.4.26,0.59,0.16,0.7a0.64,0.64,0,0,1-.61,0c-0.76-.21-6.25-2-8.34-2.58-0.76-.24-1.56-0.42-2,0.06-0.09.11-.17,0.15-0.28,0.07s-0.07-.21.3-0.63c0.21-.26.63-0.66,0.87-0.91s0.74-.95.9-1.14,0.41-.32.5-0.25a0.22,0.22,0,0,1,0,.29,1.35,1.35,0,0,0-.29.65l2.28,0.76a0.12,0.12,0,0,0,.13-0.07l2.1-2.38a0.12,0.12,0,0,0,0-.14l-0.68-1.25a3.24,3.24,0,0,0-.48-0.64c-0.16-.12-0.34-0.14-0.61.18s-0.29.28-.38,0.2-0.1-.2,0-0.33c0.27-.31.68-0.73,0.94-1l1-1.19c0.16-.16.24-0.19,0.35-0.11a0.16,0.16,0,0,1,0,.26,1.29,1.29,0,0,0-.06,1.83Zm-92.37,14.65c1.46-2.43.5-4.84-2-6.27-0.8-.45-0.88-0.38-1.08,0l-3.16,5.09c-0.89,1.45-.94,1.77.53,2.63,2.41,1.38,4.17,1.06,5.69-1.42m-1.41-6.79c3.44,2,5.08,4.45,3.25,7.43s-5,3.08-7.86,1.41c-0.85-.47-1.79-1.21-2.36-1.54l-1.46-.8c-0.2-.11-0.26-0.22-0.19-0.33s0.21-.07.49,0.08c0.51,0.29.7,0.19,2.38-2.57l1.18-1.93c1-1.67,1.2-2,1.43-2.34s0.11-.75-0.52-1.11c-0.18-.11-0.23-0.2-0.16-0.3s0.19-.12.42,0c0.6,0.34,1.29.81,1.61,1l1.79,1m14.14,6.47-3.13-1.12c-0.34-.12-1.11-0.44-1.81-0.67-0.23-.09-0.35-0.06-0.4.05s0,0.18.22,0.26c0.71,0.25.91,0.51,0.72,1s-0.25.71-1,2.53l-0.79,2.12c-0.25.64-.5,1.22-0.68,1.71-0.52,1.35-.67,1.44-1.36,1.2-0.16,0-.26,0-0.31.08s0,0.2.23,0.28l1.59,0.54c1.34,0.47,2.55,1,3.76,1.41a0.45,0.45,0,0,0,.58-0.2,10.77,10.77,0,0,0,.67-1.27c0.05-.16.08-0.29-0.06-0.33s-0.2,0-.29.15a1,1,0,0,1-.83.66,7.9,7.9,0,0,1-1.64-.42c-0.89-.32-1-0.4-0.69-1.23,0.15-.34.56-1.41,1.06-2.76a0.07,0.07,0,0,1,.1,0l1.7,0.64a0.74,0.74,0,0,1,.38,1.09,0.17,0.17,0,0,0,.11.24c0.16,0.06.23-.09,0.28-0.23,0.26-.64.73-1.46,0.79-1.62a0.14,0.14,0,0,0-.09-0.21,1.31,1.31,0,0,0-.41.12,2.18,2.18,0,0,1-1.16-.16l-1.32-.49c-0.07,0-.1,0-0.07-0.11l1.22-3.23a0.07,0.07,0,0,1,.09,0c2.42,0.86,2.46,1,2.28,1.78,0,0.1-.09.23,0.06,0.28a0.19,0.19,0,0,0,.28-0.11,10.82,10.82,0,0,1,.75-1.51,0.15,0.15,0,0,0-.07-0.22,4.29,4.29,0,0,1-.79-0.13m18.72,3.47a23.82,23.82,0,0,0-3.2-.68c-3.14-.3-6,1.19-6.36,4.3-0.42,3.63,2.41,5.52,5.71,5.83a8.23,8.23,0,0,0,2.44,0,0.54,0.54,0,0,0,.43-0.38,11,11,0,0,0,.47-1.7,0.18,0.18,0,0,0-.14-0.26c-0.15,0-.18,0-0.28.27-0.43,1-1.08,1.39-3,1.21-2.33-.21-4-1.88-3.66-4.87,0.35-2.38,1.58-3.89,4.08-3.64,1.57,0.14,3.08.88,2.95,2.22,0,0.22,0,.34.18,0.36s0.21-.1.25-0.32,0.12-1,.19-1.39,0.13-.58.13-0.68,0-.19-0.24-0.23m16.2,8.1c-0.78.09-1.08,0-1.23-.55s-0.24-1.56-.36-2.72l-0.26-2.24c-0.22-1.91-.26-2.27-0.26-2.68s0.12-.72.73-0.78c0.2,0,.3-0.1.27-0.2s-0.12-.18-0.36-0.16c-0.53.06-1.35,0.19-1.68,0.22l-1.92.16c-0.23,0-.35.09-0.34,0.21s0.13,0.17.32,0.15c0.66-.07,1,0,1.1.6,0.06,0.4.13,0.74,0.34,2.67l0.07,0.57a0.09,0.09,0,0,1,0,0l-5,.52c-0.05,0-.06,0-0.06,0l-0.07-.55c-0.22-1.92-.26-2.26-0.26-2.68,0-.57.12-0.72,0.71-0.79,0.22,0,.3-0.1.3-0.22s-0.14-.16-0.38-0.14c-0.51,0-1.34.19-1.66,0.22s-1.22.09-1.93,0.16c-0.25,0-.33.1-0.32,0.23s0.12,0.17.31,0.15c0.71-.08,1,0.06,1.1.58s0.11,0.75.33,2.69l0.26,2.23a23.15,23.15,0,0,1,.22,2.7,0.61,0.61,0,0,1-.7.78c-0.15,0-.28.07-0.27,0.2s0.13,0.18.36,0.16c0.55-.05,1.35-0.17,1.67-0.22s1.2-.09,2.08-0.18a0.28,0.28,0,0,0,.32-0.23,0.24,0.24,0,0,0-.29-0.15c-0.76.09-1.07,0.07-1.22-.54s-0.22-1.54-.36-2.71l-0.09-.77a0,0,0,0,1,0-.05l5-.53,0,0,0.1,0.79A26.21,26.21,0,0,1,151,241c0,0.54-.05.71-0.69,0.78-0.17,0-.28.07-0.27,0.21s0.13,0.17.37,0.15c0.52-.06,1.33-0.18,1.65-0.24s1.2-.08,2.07-0.16c0.23,0,.33-0.14.32-0.23s-0.14-.15-0.27-0.14m9.53-2.52c-0.7.2-1.09,0.22-1.26-.26s-0.51-1.49-.88-2.66l-0.65-2.15c-0.57-1.87-.69-2.21-0.77-2.6-0.11-.55,0-0.73.59-0.9a0.23,0.23,0,0,0,.21-0.27,0.32,0.32,0,0,0-.39,0c-0.49.14-1.23,0.39-1.56,0.48s-1.17.3-1.67,0.45c-0.25.07-.36,0.17-0.32,0.26a0.24,0.24,0,0,0,.32.1c0.72-.2.86,0,1,0.43s0.25,0.73.83,2.58l0.65,2.15a27.18,27.18,0,0,1,.74,2.67c0.12,0.56,0,.7-0.57.85-0.15,0-.26.11-0.23,0.23s0.17,0.16.39,0.1l1.6-.52c0.32-.09,1.17-0.27,2-0.51,0.2-.05.28-0.17,0.25-0.29a0.25,0.25,0,0,0-.33-0.09m11-6.14c-0.09-.19-0.17-0.25-0.3-0.2a0.24,0.24,0,0,0-.08.32c0.23,0.87.15,1.29-1.15,1.87-1.53.67-1.71,0.6-2.47-1l-2.16-4.58c-0.7-1.48-.64-1.57.17-1.92,0.2-.08.25-0.18,0.18-0.29s-0.15-.13-0.37,0l-1.64.75c-0.32.15-1.1,0.44-1.68,0.71-0.24.09-.31,0.19-0.26,0.3s0.16,0.12.36,0c0.88-.39,1-0.19,1.6,1.17l2.16,4.56c0.9,1.9.94,2.14,0.19,2.49-0.15.06-.24,0.14-0.17,0.25s0.16,0.14.39,0l1.5-.7c1-.44,1.84-0.71,3.59-1.49,0.63-.28.7-0.4,0.66-0.7a13.17,13.17,0,0,0-.52-1.61m9.61-5.57c-0.09-.14-0.17-0.25-0.3-0.15s-0.1.16,0,.31a1,1,0,0,1,0,1,5.73,5.73,0,0,1-1.32,1c-0.79.51-.92,0.55-1.41-0.17l-1.68-2.47a0.07,0.07,0,0,1,0-.1l1.55-.95a0.79,0.79,0,0,1,1.13.35,0.18,0.18,0,0,0,.26.06c0.14-.09.05-0.24,0-0.36a14.66,14.66,0,0,1-.88-1.58,0.17,0.17,0,0,0-.25-0.05,1.19,1.19,0,0,0-.15.38,1.91,1.91,0,0,1-.82.81l-1.19.75c-0.06,0-.1,0-0.13,0l-2-2.87a0.05,0.05,0,0,1,0-.09c2.15-1.38,2.26-1.36,2.83-.72,0.08,0.07.16,0.19,0.29,0.1a0.2,0.2,0,0,0,.06-0.28,12.43,12.43,0,0,1-.83-1.47,0.15,0.15,0,0,0-.22-0.09,2.61,2.61,0,0,1-.59.53l-2.78,1.79c-0.3.19-1,.61-1.62,1-0.21.13-.27,0.24-0.19,0.34s0.18,0.1.34,0c0.63-.4,1-0.41,1.26,0s0.45,0.62,1.56,2.25l1.28,1.89c0.38,0.55.73,1.1,1,1.53,0.82,1.2.82,1.38,0.2,1.78-0.13.08-.21,0.17-0.13,0.28s0.17,0.1.37,0c0.45-.29,1.14-0.77,1.38-0.93,1.19-.75,2.32-1.39,3.41-2.09a0.42,0.42,0,0,0,.17-0.57,9,9,0,0,0-.69-1.28" style="fill:#231f20"/></svg>